<?xml version="1.0" standalone="no"?>
<!DOCTYPE svg PUBLIC "-//W3C//DTD SVG 20010904//EN"
 "http://www.w3.org/TR/2001/REC-SVG-20010904/DTD/svg10.dtd">
<svg version="1.0" xmlns="http://www.w3.org/2000/svg"
 width="2208.000000pt" height="2208.000000pt" viewBox="0 0 2208.000000 2208.000000"
 preserveAspectRatio="xMidYMid meet">
<metadata>
Created by potrace 1.14, written by Peter Selinger 2001-2017
</metadata>
<g transform="translate(0.000000,2208.000000) scale(0.100000,-0.100000)"
fill="#000000" stroke="none">
<path d="M11230 22067 c-76 -32 -177 -82 -188 -94 -7 -7 -22 -13 -32 -13 -10
0 -20 -3 -22 -8 -1 -4 -42 -33 -90 -65 -48 -32 -93 -64 -100 -70 -7 -7 -24
-20 -37 -29 -53 -37 -220 -195 -311 -294 -123 -135 -383 -493 -469 -646 -12
-21 -31 -55 -42 -75 -86 -151 -114 -205 -180 -338 -81 -163 -132 -273 -174
-375 -15 -36 -35 -83 -45 -105 -36 -80 -150 -375 -150 -388 0 -7 -4 -17 -8
-22 -5 -6 -30 -73 -56 -150 -26 -77 -50 -147 -53 -155 -4 -8 -7 -17 -8 -20 -1
-3 -25 -77 -54 -165 -29 -88 -61 -189 -71 -225 -10 -36 -26 -90 -35 -120 -9
-30 -17 -59 -19 -65 -1 -5 -10 -35 -20 -66 -9 -31 -19 -65 -21 -75 -5 -23 -45
-173 -52 -194 -2 -8 -4 -16 -4 -17 0 -2 -5 -17 -10 -35 -6 -18 -12 -41 -15
-50 -9 -39 -14 -59 -18 -77 -3 -10 -14 -55 -26 -98 -12 -44 -23 -86 -24 -94
-2 -8 -6 -25 -9 -39 -15 -58 -76 -317 -80 -340 -5 -25 -60 -271 -77 -345 -8
-33 -17 -79 -36 -170 -1 -5 -7 -37 -14 -70 -7 -33 -14 -69 -16 -80 -2 -18 -11
-63 -29 -145 -3 -14 -9 -50 -15 -80 -6 -30 -12 -66 -15 -80 -8 -36 -15 -78
-25 -135 -5 -27 -12 -61 -15 -75 -3 -14 -7 -40 -10 -59 -2 -18 -7 -41 -9 -50
-3 -9 -8 -36 -12 -61 -3 -25 -8 -54 -10 -65 -9 -61 -16 -102 -19 -115 -2 -8
-6 -28 -9 -45 -2 -16 -10 -64 -17 -105 -6 -41 -13 -82 -14 -90 0 -8 -4 -31 -8
-50 -4 -19 -9 -51 -12 -70 -3 -19 -8 -48 -11 -65 -2 -16 -6 -43 -8 -60 -3 -16
-7 -48 -11 -70 -3 -22 -8 -53 -10 -70 -3 -16 -7 -42 -10 -57 -6 -32 -11 -63
-20 -133 -3 -27 -8 -61 -11 -75 -4 -24 -13 -87 -19 -140 -2 -14 -6 -42 -9 -62
-3 -21 -8 -53 -10 -70 -22 -164 -36 -272 -41 -317 -4 -30 -8 -62 -10 -71 -2
-9 -6 -41 -10 -71 -3 -30 -8 -72 -11 -94 -3 -22 -7 -56 -9 -75 -2 -19 -6 -51
-9 -70 -3 -19 -8 -57 -11 -85 -3 -27 -7 -63 -10 -80 -2 -16 -7 -57 -11 -90 -3
-33 -8 -73 -10 -90 -7 -64 -13 -112 -19 -175 -4 -36 -9 -76 -10 -90 -6 -45
-15 -129 -20 -180 -12 -116 -15 -149 -19 -186 -3 -21 -8 -66 -11 -99 -12 -140
-14 -162 -19 -195 -3 -19 -8 -66 -11 -105 -3 -38 -7 -83 -9 -100 -2 -16 -7
-68 -11 -115 -3 -47 -8 -101 -10 -120 -5 -38 -14 -136 -20 -215 -11 -134 -16
-193 -20 -225 -3 -19 -7 -73 -10 -120 -3 -47 -7 -101 -9 -120 -3 -19 -7 -75
-11 -125 -4 -49 -9 -110 -11 -135 -9 -121 -15 -191 -19 -260 -3 -41 -7 -97
-10 -125 -2 -27 -7 -99 -11 -160 -3 -60 -8 -130 -9 -155 -11 -161 -23 -360
-30 -514 -3 -67 -8 -159 -11 -206 -9 -186 -18 -417 -31 -805 -9 -284 -9 -1787
0 -2015 4 -96 9 -231 12 -300 6 -151 14 -318 20 -420 14 -239 27 -438 39 -585
3 -38 8 -99 10 -135 4 -60 7 -91 21 -225 3 -27 8 -77 11 -110 7 -85 12 -134
18 -185 3 -25 8 -67 12 -95 3 -27 7 -63 9 -80 6 -53 15 -129 21 -175 3 -25 7
-56 9 -70 5 -24 21 -147 31 -235 5 -38 7 -54 19 -108 2 -13 7 -41 9 -62 5 -49
14 -104 26 -170 12 -62 20 -111 26 -150 2 -16 6 -41 9 -55 3 -14 8 -38 10 -55
6 -37 13 -72 19 -93 3 -9 7 -33 10 -52 9 -54 16 -92 26 -130 5 -19 11 -51 14
-70 3 -19 29 -132 57 -250 28 -118 52 -222 54 -230 2 -8 4 -17 5 -20 1 -3 3
-9 5 -15 1 -5 3 -12 4 -15 1 -3 4 -14 6 -25 25 -131 231 -773 286 -892 10 -24
19 -47 19 -53 0 -11 33 -88 56 -132 8 -14 14 -31 14 -36 0 -10 38 -97 91 -208
10 -22 19 -45 19 -51 0 -6 4 -13 8 -15 4 -1 23 -34 42 -73 30 -61 88 -167 169
-310 60 -105 224 -338 324 -459 77 -94 218 -238 313 -321 31 -27 64 -57 73
-65 9 -8 41 -33 71 -55 30 -21 57 -42 60 -45 13 -16 225 -141 303 -179 89 -43
213 -96 232 -99 6 -1 37 -10 70 -21 110 -34 180 -51 280 -66 17 -2 46 -7 65
-11 46 -9 403 -10 455 -2 22 4 58 10 80 13 147 21 366 81 480 131 22 10 42 18
45 19 3 0 32 13 65 29 33 16 65 30 70 31 20 5 212 119 300 179 195 132 411
326 560 501 28 32 57 66 66 75 16 17 135 176 179 240 14 19 28 40 33 45 28 34
132 209 165 275 9 19 20 37 23 40 4 3 39 73 79 155 39 83 76 158 81 167 17 34
121 295 150 378 16 47 33 94 38 105 14 29 59 177 127 410 21 72 22 75 28 100
2 11 16 67 30 125 25 100 70 302 81 358 3 15 7 38 10 52 3 14 9 50 15 80 6 30
12 66 15 80 3 14 7 36 9 50 7 32 17 98 21 130 2 14 5 39 8 55 3 17 9 50 12 75
3 25 8 56 10 70 2 14 7 45 10 70 3 25 8 56 10 70 8 60 18 138 21 170 2 19 6
55 9 80 3 25 7 72 10 105 2 33 5 60 5 60 3 0 8 49 14 125 3 41 8 100 11 130 9
108 22 297 30 455 15 298 19 512 19 1055 0 620 -5 878 -29 1370 -4 69 -8 163
-10 210 -4 92 -12 223 -21 365 -3 50 -7 122 -9 160 -8 129 -28 428 -40 575 -2
36 -7 103 -11 150 -3 47 -8 101 -10 120 -2 19 -6 73 -10 120 -6 88 -8 111 -18
220 -4 36 -8 88 -11 115 -2 28 -7 80 -10 116 -9 95 -13 135 -20 214 -3 39 -8
86 -10 105 -3 19 -7 62 -10 95 -3 33 -8 83 -11 110 -8 64 -11 96 -18 175 -4
36 -9 81 -12 100 -3 19 -7 58 -9 85 -2 28 -6 61 -8 75 -3 14 -8 54 -12 90 -6
66 -12 126 -20 190 -2 19 -7 60 -10 90 -3 30 -8 66 -11 80 -2 14 -7 50 -10 80
-3 30 -7 69 -9 85 -2 17 -7 50 -10 75 -3 25 -8 59 -10 75 -3 17 -7 55 -10 85
-3 30 -8 71 -12 90 -3 19 -7 51 -9 70 -3 38 -9 83 -20 145 -4 22 -8 53 -9 70
-2 16 -6 48 -9 70 -4 22 -8 54 -11 70 -3 17 -7 53 -10 80 -3 28 -8 64 -11 80
-3 17 -7 46 -10 65 -2 19 -6 46 -9 60 -2 14 -7 45 -10 70 -3 25 -11 74 -16
110 -12 82 -16 104 -24 160 -11 73 -12 81 -35 230 -6 41 -14 86 -16 100 -7 42
-26 163 -30 195 -2 17 -6 41 -10 55 -3 14 -8 41 -10 60 -3 19 -16 100 -30 180
-14 80 -27 160 -30 179 -6 50 -14 94 -19 111 -5 18 -12 57 -21 119 -6 45 -9
58 -19 104 -3 12 -7 36 -10 52 -5 39 -25 147 -30 165 0 3 -4 26 -8 51 -13 76
-18 103 -22 119 -2 8 -7 31 -10 50 -3 19 -10 55 -15 80 -5 25 -12 61 -15 80
-10 56 -13 74 -18 100 -5 20 -31 155 -53 265 -2 11 -6 31 -9 45 -3 14 -8 41
-11 60 -4 19 -8 42 -10 50 -12 55 -67 318 -68 330 -2 8 -5 24 -9 35 -3 11 -8
37 -12 59 -3 21 -7 41 -9 45 -2 3 -7 24 -10 46 -4 22 -11 56 -16 75 -5 19 -11
46 -14 60 -2 14 -16 79 -31 145 -38 174 -56 258 -60 275 -2 8 -8 33 -13 55 -6
22 -13 51 -16 65 -2 14 -21 95 -41 180 -20 85 -38 160 -39 165 -1 6 -5 19 -9
30 -3 11 -9 36 -11 55 -3 19 -9 50 -15 68 -5 18 -11 36 -12 40 -1 4 -3 12 -4
17 -2 6 -26 105 -54 220 -28 116 -67 271 -87 345 -19 74 -37 146 -40 160 -3
14 -8 34 -11 45 -4 11 -8 25 -9 30 -1 6 -7 30 -14 55 -7 25 -14 52 -16 60 -2
8 -13 49 -24 90 -33 117 -61 220 -75 275 -7 28 -50 178 -95 335 -45 157 -91
314 -101 350 -10 36 -30 103 -44 150 -52 167 -66 215 -70 230 -2 8 -4 16 -5
18 -2 1 -3 5 -5 10 -1 4 -4 14 -7 22 -7 19 -51 162 -54 175 -1 6 -19 62 -39
125 -44 140 -43 134 -42 140 0 3 -5 14 -11 26 -6 11 -13 32 -16 45 -3 13 -24
76 -46 139 -22 63 -43 123 -45 133 -2 9 -17 57 -34 105 -16 48 -48 141 -71
207 -23 66 -44 127 -47 135 -4 8 -7 17 -8 20 -1 3 -4 12 -8 20 -3 8 -29 80
-57 160 -28 80 -57 161 -65 180 -8 19 -35 91 -60 160 -25 69 -50 134 -55 145
-4 11 -22 56 -38 100 -23 62 -28 85 -20 104 48 126 6 370 -79 459 -7 7 -13 16
-13 20 0 4 -16 18 -36 31 -39 27 -104 35 -144 18z m-524 -1444 c-4 -16 -8 -39
-11 -53 -3 -14 -10 -48 -15 -77 -6 -28 -13 -64 -14 -80 -2 -15 -5 -28 -6 -28
-2 0 -5 -12 -19 -90 -13 -68 -18 -99 -26 -135 -2 -14 -7 -38 -10 -55 -3 -16
-7 -41 -10 -55 -3 -14 -8 -38 -11 -55 -2 -16 -7 -41 -9 -55 -3 -14 -7 -36 -10
-50 -3 -14 -8 -41 -11 -60 -2 -19 -6 -46 -9 -60 -13 -61 -16 -77 -19 -105 -3
-17 -7 -42 -10 -55 -3 -14 -8 -43 -11 -65 -3 -22 -7 -47 -10 -55 -2 -8 -6 -33
-10 -55 -3 -22 -14 -89 -25 -150 -10 -60 -21 -128 -25 -150 -3 -22 -7 -51 -10
-65 -9 -51 -17 -106 -20 -135 -2 -16 -4 -30 -5 -30 -1 0 -3 -9 -4 -20 -2 -11
-6 -38 -10 -60 -10 -67 -16 -109 -20 -140 -3 -16 -10 -61 -16 -100 -7 -38 -13
-86 -15 -105 -2 -19 -4 -35 -5 -35 -1 0 -3 -11 -5 -25 -3 -26 -15 -111 -20
-145 -2 -11 -6 -42 -10 -70 -3 -27 -9 -63 -12 -80 -3 -16 -6 -41 -8 -55 -4
-40 -16 -132 -20 -149 -3 -15 -14 -106 -20 -161 -2 -14 -4 -25 -5 -25 -1 0 -3
-13 -4 -30 -6 -71 -17 -162 -22 -185 -3 -14 -8 -45 -10 -70 -2 -25 -7 -65 -10
-90 -3 -25 -8 -54 -9 -65 -2 -11 -6 -49 -10 -85 -3 -36 -8 -76 -10 -90 -2 -14
-7 -50 -10 -80 -3 -30 -10 -91 -15 -135 -22 -200 -23 -208 -35 -325 -4 -41 -9
-88 -11 -105 -2 -16 -6 -55 -9 -85 -3 -30 -7 -73 -9 -95 -3 -22 -7 -69 -11
-105 -3 -36 -8 -85 -11 -110 -3 -25 -7 -72 -9 -105 -3 -33 -7 -78 -9 -100 -3
-22 -7 -71 -10 -110 -4 -38 -9 -95 -12 -125 -2 -30 -7 -80 -9 -110 -3 -30 -7
-84 -10 -120 -3 -36 -8 -92 -10 -126 -3 -34 -7 -90 -10 -125 -3 -35 -7 -98
-10 -139 -3 -41 -8 -100 -10 -130 -3 -30 -7 -95 -10 -145 -4 -49 -8 -119 -11
-155 -2 -36 -7 -99 -9 -140 -2 -41 -7 -111 -9 -155 -8 -117 -24 -404 -31 -550
-29 -611 -34 -753 -50 -1325 -11 -410 -14 -670 -16 -1278 l-1 -572 -32 -14
c-80 -35 -83 -35 -127 -22 -83 25 -140 2 -237 -90 -59 -56 -81 -70 -221 -130
-116 -49 -521 -242 -634 -302 -4 -2 -5 49 -2 115 3 65 8 172 10 238 7 152 12
238 21 395 4 69 8 151 8 182 1 32 3 58 6 58 3 0 5 28 6 63 1 56 10 225 20 352
2 28 6 100 9 160 2 61 5 110 6 110 2 0 6 45 13 149 4 54 9 117 11 140 2 22 7
79 10 126 5 83 8 115 20 250 4 36 8 92 10 125 4 61 12 153 19 215 3 19 7 71
11 115 3 44 7 94 9 110 2 17 7 68 11 115 3 47 8 96 10 110 2 14 7 57 10 95 9
92 11 110 19 175 3 30 8 82 11 115 3 33 7 76 10 95 7 62 17 144 21 185 3 22 6
54 8 70 2 17 7 62 11 100 7 67 12 100 15 100 0 0 2 20 4 45 4 51 17 168 21
190 4 20 15 107 20 150 2 19 6 51 9 70 8 53 17 121 21 160 2 19 7 51 9 70 3
19 9 55 12 80 4 25 8 56 9 70 1 14 3 25 5 25 1 0 3 16 5 35 1 19 5 53 9 75 9
48 15 88 21 135 2 19 7 49 9 65 3 17 7 46 10 65 2 19 7 49 10 65 2 17 12 75
21 130 9 55 19 114 21 130 3 17 8 41 10 55 3 14 5 32 5 40 1 8 5 33 9 55 5 22
11 58 14 80 4 23 8 50 10 60 5 27 18 105 22 130 2 11 15 81 29 155 14 74 28
151 31 170 3 19 7 37 9 40 2 3 6 26 10 50 3 25 13 74 21 110 7 36 16 76 18 90
3 14 5 25 6 25 1 0 3 12 5 27 2 16 20 101 39 190 19 90 38 174 40 188 15 72
28 127 33 140 3 8 7 20 7 25 4 25 22 112 26 120 3 6 3 5 15 60 11 54 10 49 35
145 12 47 23 92 25 100 2 8 22 85 45 170 22 85 43 164 45 175 3 11 11 42 19
68 8 26 11 47 8 47 -4 0 -2 4 4 8 5 4 15 27 21 52 13 53 29 108 73 245 17 55
32 105 34 110 2 9 27 92 31 105 1 3 4 12 8 20 3 8 33 94 65 190 60 176 107
307 142 390 10 25 51 124 91 220 39 96 87 208 106 247 18 40 34 76 35 80 3 11
159 318 193 378 87 156 272 455 282 455 3 0 2 -12 -1 -27z m454 -258 c35 -110
69 -226 71 -240 0 -5 5 -15 9 -20 5 -6 11 -24 14 -40 3 -17 17 -66 32 -110 14
-44 27 -87 29 -95 5 -21 75 -262 80 -278 3 -7 5 -14 5 -17 1 -3 6 -19 11 -37
26 -83 50 -165 54 -183 2 -11 9 -36 15 -55 14 -44 76 -263 100 -355 11 -38 42
-153 70 -255 67 -243 91 -332 95 -350 2 -8 17 -69 35 -135 18 -66 33 -124 35
-130 2 -12 6 -27 51 -197 19 -71 36 -138 38 -150 2 -13 12 -50 21 -83 9 -33
21 -76 25 -95 5 -19 11 -45 14 -57 3 -13 8 -31 10 -40 2 -10 9 -38 16 -63 6
-25 15 -63 20 -85 6 -22 15 -58 21 -80 10 -39 21 -84 33 -134 3 -13 15 -61 26
-106 26 -104 31 -125 35 -152 2 -12 8 -37 14 -55 6 -18 13 -44 15 -58 3 -14
10 -45 17 -70 6 -25 12 -52 14 -60 2 -8 15 -64 30 -125 15 -60 28 -119 30
-130 1 -11 5 -27 8 -35 6 -16 85 -360 98 -425 7 -37 26 -124 66 -295 8 -36 16
-72 17 -80 1 -8 5 -26 9 -40 5 -20 60 -271 72 -331 2 -9 13 -61 25 -115 12
-55 23 -108 24 -119 2 -11 6 -29 9 -40 6 -20 12 -49 23 -115 3 -19 8 -38 10
-41 2 -3 6 -21 9 -40 3 -19 8 -47 12 -64 8 -38 13 -63 17 -97 2 -14 7 -32 11
-38 4 -6 9 -30 11 -53 3 -23 9 -55 14 -72 4 -16 11 -48 15 -70 12 -67 15 -84
20 -107 22 -102 27 -126 30 -148 2 -14 7 -36 10 -50 9 -44 38 -194 40 -210 1
-8 5 -28 8 -45 4 -16 9 -41 12 -55 3 -14 14 -74 25 -135 11 -60 24 -121 27
-135 3 -14 6 -28 5 -32 -1 -3 5 -37 14 -75 8 -37 17 -84 19 -103 2 -19 7 -46
10 -60 3 -14 7 -41 11 -60 3 -19 9 -55 14 -80 5 -25 11 -58 14 -75 3 -16 12
-68 20 -115 9 -47 18 -99 20 -115 3 -17 7 -43 11 -60 13 -69 24 -132 29 -170
3 -22 8 -51 11 -65 3 -14 7 -41 10 -60 3 -19 7 -46 10 -60 7 -32 15 -86 20
-127 2 -18 6 -40 9 -50 3 -10 8 -42 11 -72 4 -30 9 -63 11 -75 9 -38 28 -152
39 -234 12 -84 22 -148 30 -193 2 -9 6 -40 10 -70 3 -30 9 -67 11 -84 3 -16 7
-41 9 -55 2 -14 6 -40 10 -59 5 -31 4 -33 -17 -27 -57 17 -148 30 -283 42 -38
3 -73 8 -77 10 -3 2 -9 0 -12 -5 -3 -5 -21 -5 -42 -1 -19 5 -49 4 -65 0 -17
-5 -31 -5 -35 1 -3 5 -9 7 -14 4 -4 -3 -50 -7 -101 -10 -97 -5 -147 -10 -258
-25 -35 -5 -67 -8 -70 -8 -3 1 -19 -1 -36 -5 -16 -3 -48 -9 -70 -12 -22 -3
-47 -7 -55 -10 -8 -2 -32 -6 -52 -9 -21 -3 -57 -10 -80 -15 -24 -6 -58 -13
-77 -16 -19 -3 -38 -8 -41 -10 -4 -3 -25 -7 -46 -11 -22 -3 -109 -24 -194 -45
-85 -22 -165 -41 -177 -44 -13 -2 -26 -6 -31 -9 -5 -3 -19 -7 -33 -9 -21 -4
-174 -42 -369 -92 -3 0 -23 -5 -45 -10 -22 -4 -44 -9 -50 -11 -5 -1 -45 -12
-87 -23 -42 -12 -87 -23 -100 -25 -13 -3 -24 -5 -25 -7 -2 -1 -6 -2 -10 -3 -5
-2 -26 -7 -48 -13 -22 -6 -52 -14 -66 -17 l-27 -6 3 313 c6 518 21 1210 40
1732 3 77 7 199 10 270 6 183 14 384 20 495 2 52 7 154 10 225 3 72 8 171 11
220 2 50 7 140 10 200 5 112 8 177 19 370 3 61 8 146 10 190 8 155 15 271 19
335 3 36 8 115 11 175 3 61 8 142 10 180 3 39 7 106 9 150 3 44 8 118 11 165
3 47 8 112 10 145 10 159 17 264 20 300 2 22 6 87 10 145 3 58 8 125 10 150 1
25 6 88 9 140 4 52 9 120 11 150 3 30 7 91 10 135 3 44 8 112 11 150 3 39 7
95 9 125 2 30 6 93 10 140 9 100 11 126 19 245 3 50 9 124 12 165 6 78 10 119
18 235 3 39 8 97 10 130 3 33 8 94 11 135 8 107 14 177 19 240 3 30 8 89 11
130 2 41 7 102 10 135 3 33 8 89 10 125 2 36 5 65 5 65 1 0 3 20 5 45 6 89 16
216 20 260 2 25 6 79 10 120 3 41 8 91 10 110 2 19 7 76 10 125 4 50 9 106 11
125 2 19 5 69 8 110 3 41 8 100 11 130 8 87 15 170 20 240 2 36 7 94 11 130 3
36 8 81 9 100 6 86 3 91 75 -135z m1605 -10350 c33 -4 61 -8 63 -10 1 -1 -11
-41 -27 -89 -27 -84 -29 -86 -43 -64 -9 13 -24 33 -34 45 -27 31 -45 54 -77
95 l-27 37 42 -4 c24 -2 70 -6 103 -10z m-785 -2239 c58 -4 116 -9 130 -12 14
-3 45 -7 70 -9 39 -4 125 -14 170 -20 33 -4 117 -16 150 -21 52 -8 168 -23
220 -29 14 -2 48 -6 75 -10 86 -11 98 -12 265 -31 25 -3 153 -7 285 -10 131
-3 240 -6 242 -7 3 -3 11 -202 20 -482 11 -357 6 -1450 -7 -1450 -1 0 -3 -38
-5 -85 -4 -118 -14 -284 -20 -350 -3 -30 -8 -86 -11 -125 -3 -38 -7 -88 -9
-110 -2 -22 -6 -74 -10 -115 -3 -41 -8 -82 -10 -90 -2 -8 -7 -51 -10 -95 -4
-44 -8 -82 -10 -85 -2 -3 -6 -34 -9 -70 -4 -36 -8 -76 -11 -90 -2 -14 -9 -60
-15 -103 -6 -43 -13 -88 -15 -100 -2 -12 -14 -78 -25 -147 -12 -69 -25 -143
-30 -165 -5 -22 -11 -53 -14 -70 -9 -50 -15 -76 -20 -93 -3 -9 -7 -28 -10 -42
-2 -14 -14 -65 -26 -115 -12 -49 -23 -98 -25 -107 -8 -39 -57 -216 -70 -253
-7 -22 -28 -85 -45 -140 -41 -129 -103 -296 -152 -410 -71 -162 -141 -305
-150 -305 -4 0 -8 -6 -8 -14 0 -12 -136 -245 -150 -256 -3 -3 -17 -23 -30 -45
-13 -22 -27 -42 -30 -45 -3 -3 -21 -25 -40 -50 -153 -200 -338 -375 -530 -504
-147 -99 -431 -226 -556 -250 -12 -3 -38 -9 -58 -15 -40 -11 -42 -9 -50 44 -2
17 -5 30 -6 30 -1 0 -3 8 -5 17 -2 9 -9 40 -15 70 -7 29 -14 64 -16 78 -2 14
-15 72 -29 130 -13 58 -27 116 -30 130 -10 51 -30 149 -40 190 -3 14 -7 36
-10 50 -8 43 -14 74 -20 100 -3 14 -7 36 -10 50 -3 14 -7 36 -10 50 -3 14 -8
36 -11 50 -3 14 -7 36 -10 50 -2 14 -9 45 -14 70 -6 25 -12 61 -14 80 -3 19
-6 36 -7 38 -2 3 -4 11 -14 67 -4 28 -9 55 -11 60 -1 6 -5 28 -9 50 -7 43 -11
68 -18 100 -4 18 -17 88 -23 125 -1 8 -10 56 -19 105 -9 50 -18 104 -20 120
-6 43 -12 79 -19 112 -3 15 -8 46 -11 68 -3 23 -8 52 -10 65 -9 42 -13 71 -29
180 -9 58 -18 119 -21 135 -10 58 -15 90 -20 128 -9 65 -15 101 -19 124 -3 12
-7 50 -11 84 -4 35 -8 66 -10 69 -1 3 -6 32 -9 65 -4 33 -9 71 -11 85 -8 40
-15 91 -20 148 -3 29 -7 65 -10 80 -8 40 -13 80 -20 147 -3 33 -8 69 -10 80
-2 11 -7 47 -11 80 -3 33 -8 71 -10 85 -3 28 -13 115 -19 175 -3 22 -7 63 -11
90 -3 28 -8 66 -10 85 -8 84 -13 138 -19 180 -3 25 -7 65 -9 90 -7 75 -16 163
-21 205 -5 46 -13 122 -21 215 -3 36 -7 81 -9 100 -2 19 -7 71 -10 115 -3 44
-8 98 -10 120 -2 22 -6 72 -9 110 -3 39 -8 95 -10 125 -3 30 -8 89 -11 130 -3
41 -8 109 -11 150 -3 41 -7 109 -10 150 -2 41 -6 107 -9 145 -10 141 -15 222
-20 310 -2 50 -7 129 -10 177 -4 59 -2 88 5 93 12 7 143 42 190 51 14 3 31 7
38 9 8 3 87 21 175 41 207 45 192 42 241 48 22 3 52 8 66 11 14 3 66 8 115 11
50 4 91 7 93 9 5 4 343 -2 452 -9z m-2045 -463 c6 -74 15 -192 20 -293 3 -41
5 -75 5 -75 4 0 8 -41 15 -130 4 -55 8 -122 11 -150 2 -27 6 -81 9 -120 2 -38
7 -79 9 -90 2 -11 7 -61 10 -111 4 -50 8 -106 11 -125 2 -19 7 -65 10 -104 4
-38 8 -86 10 -105 2 -19 6 -64 10 -100 3 -36 8 -84 11 -108 3 -24 7 -62 9 -85
2 -23 7 -62 9 -87 3 -25 8 -70 11 -100 2 -30 7 -68 9 -85 2 -16 7 -59 11 -95
3 -36 8 -78 10 -95 3 -16 7 -55 10 -85 2 -30 7 -73 10 -95 3 -22 7 -57 10 -77
3 -21 7 -56 10 -78 6 -47 14 -111 20 -160 3 -19 7 -54 10 -77 9 -78 16 -128
20 -153 3 -22 6 -47 19 -150 2 -14 7 -52 11 -85 4 -33 9 -69 11 -80 4 -19 9
-57 19 -130 11 -80 15 -101 21 -140 4 -22 8 -56 10 -75 1 -19 3 -35 4 -35 2 0
3 -8 14 -90 4 -27 18 -117 31 -200 13 -82 27 -172 31 -200 3 -27 8 -59 11 -70
2 -11 6 -33 9 -50 3 -16 14 -82 25 -145 11 -63 23 -132 26 -153 6 -46 11 -72
13 -72 1 0 3 -11 4 -25 2 -14 6 -43 10 -65 6 -35 11 -62 31 -165 3 -14 12 -63
20 -110 19 -107 23 -128 41 -220 9 -41 18 -88 20 -105 4 -24 65 -328 79 -395
2 -8 15 -71 29 -140 15 -69 28 -134 31 -145 2 -11 7 -33 10 -50 3 -16 10 -46
15 -65 8 -32 13 -52 26 -120 2 -14 7 -31 9 -38 4 -10 -11 -12 -73 -8 -42 3
-88 8 -102 11 -51 10 -90 17 -97 18 -35 2 -243 86 -317 127 -86 48 -205 130
-252 175 -12 11 -43 40 -70 65 -45 42 -143 152 -202 226 -13 16 -58 81 -99
144 -42 63 -83 126 -93 140 -19 29 -177 345 -202 405 -14 34 -55 137 -89 223
-5 12 -13 32 -19 45 -10 24 -91 263 -95 281 -1 6 -5 18 -8 26 -7 17 -76 254
-83 285 -2 11 -6 30 -8 42 -3 13 -7 26 -10 31 -3 5 -7 19 -10 33 -3 13 -10 42
-15 64 -6 22 -13 55 -16 74 -3 19 -8 37 -10 41 -2 3 -7 20 -10 36 -3 16 -7 34
-9 39 -4 15 -15 66 -20 95 -10 50 -36 176 -45 220 -6 25 -13 61 -15 80 -3 19
-10 60 -16 90 -11 59 -17 92 -25 143 -3 17 -8 46 -12 62 -3 17 -7 41 -9 55 -1
14 -7 59 -14 100 -6 41 -13 86 -15 100 -7 48 -23 162 -30 220 -3 19 -7 51 -10
70 -3 19 -7 53 -9 75 -3 22 -9 83 -15 135 -6 52 -14 118 -17 145 -3 28 -7 66
-9 85 -7 59 -19 185 -30 320 -3 47 -8 101 -10 120 -2 19 -7 80 -10 135 -4 55
-8 116 -11 135 -2 19 -6 87 -9 150 -6 138 -14 231 -21 241 -2 4 0 10 5 14 6 3
8 11 6 18 -9 23 -12 77 -5 77 4 0 18 -9 32 -19 13 -11 37 -23 51 -26 15 -4 27
-11 27 -16 0 -12 37 -12 44 0 3 5 22 12 42 16 40 7 50 14 103 66 44 45 51 53
84 110 15 25 38 55 53 68 34 30 207 159 264 198 107 73 154 101 305 185 89 50
357 178 362 174 1 -1 5 -29 8 -63z"/>
</g>
</svg>
